#Comment line ignore any data following # character 
#Hierarchical Translation and Rotation (.htr) file 
[Header]	
#Header keywords are followed by a single value 
FileType HTR		#Single word string
DataType HTRS		#Translation followed by rotation and scale data
FileVersion 1		#integer
NumSegments 64		#integer
NumFrames 3		#integer
DataFrameRate 30		#integer, data frame rate in this file
EulerRotationOrder ZYX
CalibrationUnits mm
RotationUnits Degrees
GlobalAxisofGravity Y
BoneLengthAxis Y
ScaleFactor 1.00
[SegmentNames&Hierarchy]
#CHILD	PARENT
Pinger_Root GLOBAL
Pelvis Pinger_Root
L_Hip Pelvis
R_Hip Pelvis
Rear_Leg01 Pelvis
Spine1 Pelvis
L_Leg01 L_Hip
L_Leg02 L_Leg01
L_Leg03 L_Leg02
L_Foot L_Leg03
L_Toe1_01 L_Foot
L_Toe2_01 L_Foot
L_Toe3_01 L_Foot
planeAlignerLeft L_Foot
L_Toe1_02 L_Toe1_01
L_Toe1_03 L_Toe1_02
L_Toe2_02 L_Toe2_01
L_Toe2_03 L_Toe2_02
L_Toe3_02 L_Toe3_01
L_Toe3_03 L_Toe3_02
planeLockWeightLeft planeAlignerLeft
R_Leg01 R_Hip
R_Leg02 R_Leg01
R_Leg03 R_Leg02
R_Foot R_Leg03
planeAlignerRight R_Foot
R_Toe1_01 R_Foot
R_Toe2_01 R_Foot
R_Toe3_01 R_Foot
planeLockWeightRight planeAlignerRight
R_Toe1_02 R_Toe1_01
R_Toe1_03 R_Toe1_02
R_Toe2_02 R_Toe2_01
R_Toe2_03 R_Toe2_02
R_Toe3_02 R_Toe3_01
R_Toe3_03 R_Toe3_02
Rear_Leg02 Rear_Leg01
Rear_Leg03 Rear_Leg02
Rear_Leg04 Rear_Leg03
Rear_Foot Rear_Leg04
planeAlignerCenter Rear_Foot
Rear_Toe1_01 Rear_Foot
Rear_Toe2_01 Rear_Foot
Rear_Toe3_01 Rear_Foot
planeLockWeightCenter planeAlignerCenter
Rear_Toe1_02 Rear_Toe1_01
Rear_Toe1_03 Rear_Toe1_02
Rear_Toe2_02 Rear_Toe2_01
Rear_Toe2_03 Rear_Toe2_02
Rear_Toe3_02 Rear_Toe3_01
Rear_Toe3_03 Rear_Toe3_02
Back_Bone Spine1
Head Spine1
Motor_Bone Back_Bone
Ping_Mechanism Back_Bone
BN_LookIK Head
bottomMouth Head
L_Mouth01 Head
L_mouthFront Head
mouthGun Head
R_Mouth01 Head
R_mouthFront Head
TopMouth Head
weapon_bone Head
[BasePosition]
#SegmentName Tx, Ty, Tz, Rx, Ry, Rz, BoneLength
Pinger_Root 0.000000 0.000000 0.000000 -90.000000 0.000000 0.000000 10.000000 
Pelvis 0.000000 0.000000 0.000000 0.000000 0.000000 0.000000 10.000000 
L_Hip 0.000000 0.000000 0.000000 0.000000 0.000000 0.000000 10.000000 
R_Hip 0.000000 0.000000 0.000000 0.000000 0.000000 0.000000 10.000000 
Rear_Leg01 0.000000 0.000000 0.000000 0.000000 0.000000 0.000000 10.000000 
Spine1 0.000000 0.000000 0.000000 0.000000 0.000000 0.000000 10.000000 
L_Leg01 0.000000 0.000000 0.000000 0.000000 0.000000 0.000000 10.000000 
L_Leg02 0.000000 0.000000 0.000000 0.000000 0.000000 0.000000 10.000000 
L_Leg03 0.000000 0.000000 0.000000 0.000000 0.000000 0.000000 10.000000 
L_Foot 0.000000 0.000000 0.000000 0.000000 0.000000 0.000000 10.000000 
L_Toe1_01 0.000000 0.000000 0.000000 0.000000 0.000000 0.000000 10.000000 
L_Toe2_01 0.000000 0.000000 0.000000 0.000000 0.000000 0.000000 10.000000 
L_Toe3_01 0.000000 0.000000 0.000000 0.000000 0.000000 0.000000 10.000000 
planeAlignerLeft 0.000000 0.000000 0.000000 0.000000 0.000000 0.000000 10.000000 
L_Toe1_02 0.000000 0.000000 0.000000 0.000000 0.000000 0.000000 10.000000 
L_Toe1_03 0.000000 0.000000 0.000000 0.000000 0.000000 0.000000 10.000000 
L_Toe2_02 0.000000 0.000000 0.000000 0.000000 0.000000 0.000000 10.000000 
L_Toe2_03 0.000000 0.000000 0.000000 0.000000 0.000000 0.000000 10.000000 
L_Toe3_02 0.000000 0.000000 0.000000 0.000000 0.000000 0.000000 10.000000 
L_Toe3_03 0.000000 0.000000 0.000000 0.000000 0.000000 0.000000 10.000000 
planeLockWeightLeft 0.000000 0.000000 0.000000 0.000000 0.000000 0.000000 10.000000 
R_Leg01 0.000000 0.000000 0.000000 0.000000 0.000000 0.000000 10.000000 
R_Leg02 0.000000 0.000000 0.000000 0.000000 0.000000 0.000000 10.000000 
R_Leg03 0.000000 0.000000 0.000000 0.000000 0.000000 0.000000 10.000000 
R_Foot 0.000000 0.000000 0.000000 0.000000 0.000000 0.000000 10.000000 
planeAlignerRight 0.000000 0.000000 0.000000 0.000000 0.000000 0.000000 10.000000 
R_Toe1_01 0.000000 0.000000 0.000000 0.000000 0.000000 0.000000 10.000000 
R_Toe2_01 0.000000 0.000000 0.000000 0.000000 0.000000 0.000000 10.000000 
R_Toe3_01 0.000000 0.000000 0.000000 0.000000 0.000000 0.000000 10.000000 
planeLockWeightRight 0.000000 0.000000 0.000000 0.000000 0.000000 0.000000 10.000000 
R_Toe1_02 0.000000 0.000000 0.000000 0.000000 0.000000 0.000000 10.000000 
R_Toe1_03 0.000000 0.000000 0.000000 0.000000 0.000000 0.000000 10.000000 
R_Toe2_02 0.000000 0.000000 0.000000 0.000000 0.000000 0.000000 10.000000 
R_Toe2_03 0.000000 0.000000 0.000000 0.000000 0.000000 0.000000 10.000000 
R_Toe3_02 0.000000 0.000000 0.000000 0.000000 0.000000 0.000000 10.000000 
R_Toe3_03 0.000000 0.000000 0.000000 0.000000 0.000000 0.000000 10.000000 
Rear_Leg02 0.000000 0.000000 0.000000 0.000000 0.000000 0.000000 10.000000 
Rear_Leg03 0.000000 0.000000 0.000000 0.000000 0.000000 0.000000 10.000000 
Rear_Leg04 0.000000 0.000000 0.000000 0.000000 0.000000 0.000000 10.000000 
Rear_Foot 0.000000 0.000000 0.000000 0.000000 0.000000 0.000000 10.000000 
planeAlignerCenter 0.000000 0.000000 0.000000 0.000000 0.000000 0.000000 10.000000 
Rear_Toe1_01 0.000000 0.000000 0.000000 0.000000 0.000000 0.000000 10.000000 
Rear_Toe2_01 0.000000 0.000000 0.000000 0.000000 0.000000 0.000000 10.000000 
Rear_Toe3_01 0.000000 0.000000 0.000000 0.000000 0.000000 0.000000 10.000000 
planeLockWeightCenter 0.000000 0.000000 0.000000 0.000000 0.000000 0.000000 10.000000 
Rear_Toe1_02 0.000000 0.000000 0.000000 0.000000 0.000000 0.000000 10.000000 
Rear_Toe1_03 0.000000 0.000000 0.000000 0.000000 0.000000 0.000000 10.000000 
Rear_Toe2_02 0.000000 0.000000 0.000000 0.000000 0.000000 0.000000 10.000000 
Rear_Toe2_03 0.000000 0.000000 0.000000 0.000000 0.000000 0.000000 10.000000 
Rear_Toe3_02 0.000000 0.000000 0.000000 0.000000 0.000000 0.000000 10.000000 
Rear_Toe3_03 0.000000 0.000000 0.000000 0.000000 0.000000 0.000000 10.000000 
Back_Bone 0.000000 0.000000 0.000000 0.000000 0.000000 0.000000 10.000000 
Head 0.000000 0.000000 0.000000 0.000000 0.000000 0.000000 10.000000 
Motor_Bone 0.000000 0.000000 0.000000 0.000000 0.000000 0.000000 10.000000 
Ping_Mechanism 0.000000 0.000000 0.000000 0.000000 0.000000 0.000000 10.000000 
BN_LookIK 0.000000 0.000000 0.000000 0.000000 0.000000 0.000000 10.000000 
bottomMouth 0.000000 0.000000 0.000000 0.000000 0.000000 0.000000 10.000000 
L_Mouth01 0.000000 0.000000 0.000000 0.000000 0.000000 0.000000 10.000000 
L_mouthFront 0.000000 0.000000 0.000000 0.000000 0.000000 0.000000 10.000000 
mouthGun 0.000000 0.000000 0.000000 0.000000 0.000000 0.000000 10.000000 
R_Mouth01 0.000000 0.000000 0.000000 0.000000 0.000000 0.000000 10.000000 
R_mouthFront 0.000000 0.000000 0.000000 0.000000 0.000000 0.000000 10.000000 
TopMouth 0.000000 0.000000 0.000000 0.000000 0.000000 0.000000 10.000000 
weapon_bone 0.000000 0.000000 0.000000 0.000000 0.000000 0.000000 10.000000 
#Beginning of Data. Separated by tabs
#Fr	Tx	Ty	Tz	Rx	Ry	Rz	SF
[Pinger_Root]
21 -0.000014 1778.425781 0.000000 -0.000075 -0.000000 -0.000020 1778.425903
22 -0.000015 1860.000244 0.000000 -0.000075 -0.000000 -0.000020 1860.000244
23 -0.000016 1938.309204 0.000000 -0.000075 -0.000000 -0.000020 1938.309204
[Pelvis]
21 -350.249817 1065.732422 4722.350586 33.990551 -71.334465 -23.411850 4853.767090
22 -346.936462 1055.021484 4747.389648 34.490021 -71.070999 -22.177559 4875.565918
23 -342.009674 1043.737549 4757.099609 34.999973 -70.811096 -20.952820 4882.249023
[L_Hip]
21 5.766392 125.831482 872.656799 -178.253311 -81.787758 87.381340 881.701050
22 5.766392 125.831482 872.656799 -178.253311 -81.787758 87.381340 881.701050
23 5.766392 125.831482 872.656799 -178.253311 -81.787758 87.381340 881.701050
[R_Hip]
21 5.765438 125.836372 -872.654907 -1.746690 81.787712 87.381248 881.699829
22 5.765438 125.836372 -872.654907 -1.746690 81.787712 87.381248 881.699829
23 5.765438 125.836372 -872.654907 -1.746690 81.787712 87.381248 881.699829
[Rear_Leg01]
21 -192.298416 -925.602966 -0.001907 145.782883 20.498055 -152.367523 945.367432
22 -192.298416 -925.602966 -0.001907 149.191696 20.798498 -148.413696 945.367432
23 -192.298416 -925.602966 -0.001907 151.967468 19.822157 -146.238419 945.367432
[Spine1]
21 290.604584 5.007505 0.000477 -16.472124 -8.207293 38.138126 290.647736
22 290.604584 5.007505 0.000477 -18.426937 -7.468404 38.262260 290.647736
23 290.604584 5.007505 0.000477 -20.376339 -6.726001 38.360710 290.647736
[L_Leg01]
21 761.932007 -0.002384 -0.069261 77.114594 -2.993728 -92.609512 761.932068
22 761.932007 -0.002384 -0.069261 77.947182 -2.052827 -92.894730 761.932068
23 761.932007 -0.002384 -0.069261 79.137619 -1.425000 -92.920052 761.932068
[L_Leg02]
21 1441.140503 -0.000954 -0.000715 -1.426614 0.612804 -102.720886 1441.140503
22 1441.140503 -0.000954 -0.000715 -1.435593 0.617544 -101.359192 1441.140503
23 1441.140503 -0.000954 -0.000715 -1.441968 0.610483 -100.825348 1441.140503
[L_Leg03]
21 1686.963989 -0.000715 -0.000954 0.048425 -0.010143 97.404121 1686.963989
22 1686.963989 -0.000715 -0.000954 0.050795 -0.010076 96.917877 1686.963989
23 1686.963989 -0.000715 -0.000954 0.048919 -0.011814 97.142159 1686.963989
[L_Foot]
21 3041.570068 -30.715107 11.297464 -13.147844 9.177676 78.527817 3041.746094
22 3041.570068 -30.715107 11.297464 -13.453670 8.384958 78.420029 3041.746094
23 3041.570068 -30.715107 11.297464 -13.757392 7.591681 78.316704 3041.746094
[L_Toe1_01]
21 -188.216690 -224.732346 -21.137953 88.894981 -1.637050 -149.307343 293.899567
22 -188.216690 -224.732346 -21.137953 88.870888 -1.610853 -148.123306 293.899567
23 -188.216690 -224.732346 -21.137953 88.847336 -1.584164 -146.939316 293.899567
[L_Toe2_01]
21 200.746536 -219.926590 148.838394 -75.237900 -11.137093 -56.478039 332.896027
22 200.746536 -219.926590 148.838394 -75.073929 -10.908412 -57.432789 332.896027
23 200.746536 -219.926590 148.838394 -74.913994 -10.677093 -58.386131 332.896027
[L_Toe3_01]
21 188.832520 -219.859131 -191.078659 -109.073837 13.711251 -58.422230 347.140900
22 188.832520 -219.859131 -191.078659 -109.266541 13.442539 -59.278435 347.140900
23 188.832520 -219.859131 -191.078659 -109.454895 13.171031 -60.132793 347.140900
[planeAlignerLeft]
21 -75.419121 -769.315308 0.050049 0.000000 -89.951546 -90.054779 773.003296
22 -76.797585 -782.140503 0.047150 0.000000 -89.937447 -90.057434 785.901794
23 -78.176033 -794.965637 0.044250 0.000000 -89.944046 -90.060097 798.800293
[L_Toe1_02]
21 413.761139 0.000477 0.000000 0.001385 -25.905632 0.001385 413.761139
22 413.761139 0.000477 0.000000 0.001385 -25.874460 0.001385 413.761139
23 413.761139 0.000477 0.000000 0.001385 -25.843292 0.001385 413.761139
[L_Toe1_03]
21 464.317322 0.000358 -0.000089 0.003785 53.859905 0.003785 464.317322
22 464.317322 0.000358 -0.000089 0.003546 51.347607 0.003546 464.317322
23 464.317322 0.000358 -0.000089 0.003366 49.189701 0.003366 464.317322
[L_Toe2_02]
21 342.235809 -0.000477 0.000238 0.001183 -75.945717 0.001183 342.235809
22 342.235809 -0.000477 0.000238 0.001183 -75.544609 0.001183 342.235809
23 342.235809 -0.000477 0.000238 0.001184 -75.143585 0.001184 342.235809
[L_Toe2_03]
21 420.210846 -0.000715 0.000000 -179.990646 84.064064 -179.987152 420.210846
22 420.210846 -0.000715 0.000000 -179.986557 85.665146 -179.983047 420.210846
23 420.210846 -0.000715 0.000000 -179.981018 86.822693 -179.977524 420.210846
[L_Toe3_02]
21 329.270111 0.000954 0.000000 0.001178 -79.683517 0.001178 329.270111
22 329.270111 0.000954 0.000000 0.001179 -79.312164 0.001179 329.270111
23 329.270111 0.000954 0.000000 0.001179 -78.940842 0.001179 329.270111
[L_Toe3_03]
21 439.137451 -0.001907 0.000954 -179.993744 81.777245 -179.990219 439.137451
22 439.137451 -0.001907 0.000954 -179.991959 83.267166 -179.988464 439.137451
23 439.137451 -0.001907 0.000954 -179.990097 84.348267 -179.986588 439.137451
[planeLockWeightLeft]
21 1000.000000 -0.000376 -0.000240 -0.011826 -0.004376 0.005620 1000.000000
22 1000.000000 -0.000383 -0.000233 -0.011826 -0.004376 0.005620 1000.000000
23 1000.000000 -0.000390 -0.000227 -0.011826 -0.004376 0.005620 1000.000000
[R_Leg01]
21 761.455627 -0.001907 -0.000358 81.866150 -3.642423 53.282986 761.455688
22 761.455627 -0.001907 -0.000358 85.571602 0.710635 49.722408 761.455688
23 761.455627 -0.001907 -0.000358 90.150818 0.784055 46.536362 761.455688
[R_Leg02]
21 1441.140625 0.000000 -0.000238 -1.457626 -0.812854 -166.701553 1441.140625
22 1441.140625 0.000000 -0.000238 -1.537563 -1.110002 -164.891388 1441.140625
23 1441.140625 0.000000 -0.000238 -1.551642 -1.246767 -165.213440 1441.140625
[R_Leg03]
21 1686.963989 0.000954 0.001431 0.126574 -0.080271 144.054947 1686.963989
22 1686.963989 0.000954 0.001431 0.145745 -0.095088 149.331146 1686.963989
23 1686.963989 0.000954 0.001431 0.149988 -0.101318 151.433685 1686.963989
[R_Foot]
21 3041.560059 -30.531288 -11.204481 24.462492 -42.906689 80.713203 3041.734131
22 3041.560059 -30.531288 -11.204481 20.111599 -42.048801 83.557632 3041.734131
23 3041.560059 -30.531288 -11.204481 16.571293 -39.755054 86.455963 3041.734131
[planeAlignerRight]
21 -249.098618 -775.642761 35.420822 0.000000 -89.934387 -90.043106 815.430237
22 -243.135803 -781.166199 27.824535 0.000000 -89.925987 -90.044998 818.602356
23 -236.837296 -789.615295 18.205948 0.000000 -89.931473 -90.046921 824.570007
[R_Toe1_01]
21 -188.383347 -224.864899 21.052242 91.286263 1.157603 -145.572693 294.101532
22 -188.383347 -224.864899 21.052242 91.205872 1.403406 -145.753510 294.101532
23 -188.383347 -224.864899 21.052242 91.194275 1.604679 -145.459549 294.101532
[R_Toe2_01]
21 200.637817 -220.002121 -148.787384 -107.366150 6.810913 -80.865257 332.857574
22 200.637817 -220.002121 -148.787384 -107.425537 7.724432 -80.294914 332.857574
23 200.637817 -220.002121 -148.787384 -107.475914 8.638495 -79.724251 332.857574
[R_Toe3_01]
21 188.606735 -220.092957 191.126343 -67.211937 -12.491517 -82.139145 347.192566
22 188.606735 -220.092957 191.126343 -67.328163 -12.078885 -81.315964 347.192566
23 188.606735 -220.092957 191.126343 -67.438133 -11.664699 -80.494934 347.192566
[planeLockWeightRight]
21 0.000046 0.000000 0.000000 -0.011823 -0.004379 -0.000027 0.000046
22 104.000404 0.000153 0.000114 -0.011823 -0.004379 -0.000027 104.000404
23 351.999817 0.000305 -0.000076 -0.011823 -0.004379 -0.000027 351.999817
[R_Toe1_02]
21 413.762085 0.000477 -0.000119 0.001417 -21.821772 0.001417 413.762085
22 413.762085 0.000477 -0.000119 0.001410 -22.732220 0.001410 413.762085
23 413.762085 0.000477 -0.000119 0.001402 -23.642733 0.001402 413.762085
[R_Toe1_03]
21 464.317810 0.000000 0.001088 -0.012163 83.671417 -0.008661 464.317810
22 464.317810 0.000000 0.001088 0.014083 80.439301 0.014083 464.317810
23 464.317810 0.000000 0.001088 0.009667 76.053062 0.009667 464.317810
[R_Toe2_02]
21 342.234741 -0.000954 0.000238 -0.002331 -80.731133 -0.002331 342.234741
22 342.234741 -0.000954 0.000238 -0.002331 -80.712402 -0.002331 342.234741
23 342.234741 -0.000954 0.000238 -0.002331 -80.693649 -0.002331 342.234741
[R_Toe2_03]
21 420.210846 0.000715 -0.000268 -179.996384 52.155628 179.999924 420.210846
22 420.210846 0.000715 -0.000268 -179.996353 53.143921 179.999985 420.210846
23 420.210846 0.000715 -0.000268 -179.996292 54.132290 -179.999985 420.210846
[R_Toe3_02]
21 329.270355 -0.000477 -0.000954 0.001175 -84.386017 0.001175 329.270355
22 329.270355 -0.000477 -0.000954 0.001175 -84.359306 0.001175 329.270355
23 329.270355 -0.000477 -0.000954 0.001175 -84.332474 0.001175 329.270355
[R_Toe3_03]
21 439.137939 0.000238 0.001431 -179.996323 53.259506 -179.988937 439.137939
22 439.137939 0.000238 0.001431 -179.996216 53.694153 -179.988861 439.137939
23 439.137939 0.000238 0.001431 -179.996124 54.128765 -179.988785 439.137939
[Rear_Leg02]
21 1162.777710 -0.029802 0.005960 -26.726847 8.954959 -154.489548 1162.777710
22 1162.777710 -0.029802 0.005960 -29.699333 10.395155 -149.623245 1162.777710
23 1162.777710 -0.029802 0.005960 -32.318207 11.167987 -148.474915 1162.777710
[Rear_Leg03]
21 607.192505 -0.013351 -0.073195 0.009904 -0.006169 80.190399 607.192505
22 607.192505 -0.013351 -0.073195 0.009910 -0.006160 80.085342 607.192505
23 607.192505 -0.013351 -0.073195 0.009916 -0.006151 79.980270 607.192505
[Rear_Leg04]
21 995.874512 -0.020504 -0.011921 -0.043813 -0.013722 103.165955 995.874573
22 995.874512 -0.020504 -0.011921 -0.044746 -0.012747 102.356049 995.874573
23 995.874512 -0.020504 -0.011921 -0.044750 -0.012734 102.387772 995.874573
[Rear_Foot]
21 3096.176270 -0.067472 -0.041425 92.869621 62.190506 -100.674370 3096.176270
22 3096.176270 -0.067472 -0.041425 94.420807 58.840454 -100.055023 3096.176270
23 3096.176270 -0.067472 -0.041425 95.054077 56.108917 -99.265396 3096.176270
[planeAlignerCenter]
21 -14.421448 -35.138519 -760.792114 0.001964 -0.001286 156.418488 761.739685
22 -6.534714 -18.177458 -785.928833 0.001956 -0.001298 157.125381 786.166199
23 1.059875 -0.323334 -807.391174 0.001948 -0.001310 157.832245 807.391968
[Rear_Toe1_01]
21 0.653352 83.966492 -371.173737 -0.826243 22.405954 64.284966 380.553192
22 0.653352 83.966492 -371.173737 -0.827617 24.605326 65.149261 380.553192
23 0.653352 83.966492 -371.173737 -0.791856 26.804451 66.029602 380.553192
[Rear_Toe2_01]
21 178.200760 -294.826019 -362.060547 -4.829197 47.499916 -105.656647 499.765686
22 178.200760 -294.826019 -362.060547 -4.991805 49.282650 -104.793968 499.765686
23 178.200760 -294.826019 -362.060547 -5.017162 50.756180 -103.449409 499.765686
[Rear_Toe3_01]
21 -153.359680 -308.780914 -362.060852 -4.876606 48.880890 -143.877151 499.952881
22 -153.359680 -308.780914 -362.060852 -5.458611 50.471729 -143.667099 499.952881
23 -153.359680 -308.780914 -362.060852 -6.051638 52.063866 -143.475937 499.952881
[planeLockWeightCenter]
21 1000.000366 0.000483 -0.000111 -0.011814 -0.004373 -0.000015 1000.000366
22 1000.000366 0.000491 -0.000110 -0.011814 -0.004373 -0.000015 1000.000366
23 1000.000366 0.000499 -0.000109 -0.011814 -0.004373 -0.000015 1000.000366
[Rear_Toe1_02]
21 379.707825 0.194073 0.000477 -0.005238 -32.919472 -0.000847 379.707855
22 379.707825 0.194073 0.000477 -0.004788 -33.241127 0.001097 379.707855
23 379.707825 0.194073 0.000477 -0.004350 -33.562786 0.003045 379.707855
[Rear_Toe1_03]
21 500.129700 0.165701 0.000119 -0.023690 87.410713 -0.027188 500.129761
22 500.129700 0.165701 0.000119 0.005374 82.356171 0.003620 500.129761
23 500.129700 0.165701 0.000119 0.010612 77.301529 0.010612 500.129761
[Rear_Toe2_02]
21 340.494507 0.000238 -0.000954 0.001200 -66.093925 0.001200 340.494507
22 340.494507 0.000238 -0.000954 0.001197 -67.361305 0.001197 340.494507
23 340.494507 0.000238 -0.000954 0.001194 -68.628502 0.001194 340.494507
[Rear_Toe2_03]
21 433.103577 0.000000 0.000238 0.005261 64.218575 0.005261 433.103546
22 433.103577 0.000000 0.000238 0.005626 65.917732 0.005626 433.103546
23 433.103577 0.000000 0.000238 0.006141 67.949814 0.006141 433.103546
[Rear_Toe3_02]
21 340.494141 -0.000358 -0.000477 0.001189 -71.717056 0.001189 340.494171
22 340.494141 -0.000358 -0.000477 0.001188 -72.514381 0.001188 340.494171
23 340.494141 -0.000358 -0.000477 0.001186 -73.311829 0.001186 340.494171
[Rear_Toe3_03]
21 433.103577 0.001431 -0.000238 0.007889 72.887810 0.007889 433.103546
22 433.103577 0.001431 -0.000238 0.008347 73.834587 0.008347 433.103546
23 433.103577 0.001431 -0.000238 0.009104 75.184158 0.009104 433.103546
[Back_Bone]
21 1312.175781 -701.934692 0.000954 2.387304 -3.615084 -85.725754 1488.125488
22 1312.175781 -701.934692 0.000954 2.323561 -3.578868 -84.821304 1488.125488
23 1312.175781 -701.934692 0.000954 2.260401 -3.541653 -83.916924 1488.125488
[Head]
21 1406.159424 809.709290 0.001431 -0.664465 -1.945569 4.822339 1622.625488
22 1406.159424 809.709290 0.001431 -0.228392 -2.041528 4.573710 1622.625488
23 1406.159424 809.709290 0.001431 0.208144 -2.135598 4.324328 1622.625488
[Motor_Bone]
21 1158.364380 -417.834747 0.000477 -3.495537 0.584004 -105.401466 1231.419434
22 1158.364380 -417.834747 0.000477 0.251859 -0.541810 -106.527908 1231.419434
23 1158.364380 -417.834747 0.000477 2.270587 -1.149517 -107.133400 1231.419434
[Ping_Mechanism]
21 1195.336548 -397.881104 82.853882 0.000103 -0.000053 82.120995 1262.538574
22 1197.665649 -397.772949 85.238205 0.000103 -0.000053 82.120995 1264.868286
23 1199.994751 -397.664795 87.622520 0.000103 -0.000053 82.120995 1267.202637
[BN_LookIK]
21 193.241119 1380.371704 -0.002861 0.000000 89.965736 -31.038179 1393.832153
22 193.241119 1380.371704 -0.002861 0.000000 89.965736 -31.038179 1393.832153
23 193.241119 1380.371704 -0.002861 0.000000 89.965736 -31.038179 1393.832153
[bottomMouth]
21 -435.092926 615.759399 -0.000954 -0.000022 0.000016 73.527184 753.966492
22 -435.092926 615.759399 -0.000954 -0.000022 0.000016 73.527184 753.966492
23 -435.092926 615.759399 -0.000954 -0.000022 0.000016 73.527184 753.966492
[L_Mouth01]
21 554.440979 7.658243 838.222046 150.204178 23.759130 109.605339 1005.027161
22 554.440979 7.658243 838.222046 150.204178 23.759130 109.605339 1005.027161
23 554.440979 7.658243 838.222046 150.204178 23.759130 109.605339 1005.027161
[L_mouthFront]
21 551.629089 934.514771 339.150421 0.000081 2.804060 79.119301 1136.941284
22 551.629089 934.514771 339.150421 0.000081 2.804060 79.119301 1136.941284
23 551.629089 934.514771 339.150421 0.000081 2.804060 79.119301 1136.941284
[mouthGun]
21 55.332661 1627.420898 0.000000 0.000023 0.000009 -11.038128 1628.361328
22 55.332661 1627.420898 0.000000 0.000023 0.000009 -11.038128 1628.361328
23 55.332661 1627.420898 0.000000 0.000023 0.000009 -11.038128 1628.361328
[R_Mouth01]
21 554.442383 7.659197 -838.223938 29.795891 -23.759109 109.605331 1005.029541
22 554.442383 7.659197 -838.223938 29.795891 -23.759109 109.605331 1005.029541
23 554.442383 7.659197 -838.223938 29.795891 -23.759109 109.605331 1005.029541
[R_mouthFront]
21 551.629089 934.514282 -339.151367 0.000029 -2.803930 79.119133 1136.941162
22 551.629089 934.514282 -339.151367 0.000029 -2.803930 79.119133 1136.941162
23 551.629089 934.514282 -339.151367 0.000029 -2.803930 79.119133 1136.941162
[TopMouth]
21 461.269867 -56.106091 -0.008583 -0.000059 -0.000268 92.025169 464.669525
22 461.269867 -56.106091 -0.008583 -0.000059 -0.000268 92.025169 464.669525
23 461.269867 -56.106091 -0.008583 -0.000059 -0.000268 92.025169 464.669525
[weapon_bone]
21 -987.239868 1448.372803 0.001431 0.000000 89.965736 -31.038221 1752.833740
22 -987.239868 1448.372803 0.001431 0.000000 89.965736 -31.038221 1752.833740
23 -987.239868 1448.372803 0.001431 0.000000 89.965736 -31.038221 1752.833740
